  0
SECTION
  2
HEADER
  9
$ACADVER
  1
AC1009
  9
$INSBASE
 10
0.0
 20
0.0
 30
0.0
  9
$EXTMIN
 10
0.0
 20
0.0
 30
0.0
  9
$EXTMAX
 10
0.0
 20
0.0
 30
0.0
  0
ENDSEC
  0
SECTION
  2
TABLES
  0
TABLE
  2
VPORT
 70
0
  0
ENDTAB
  0
TABLE
  2
LTYPE
 70
1
  0
LTYPE
  2
CONTINUOUS
 70
0
  3
Solid line
 72
65
 73
0
 40
0.0
  0
ENDTAB
  0
TABLE
  2
LAYER
 70
1
  0
LAYER
  2
0
 70
64
 62
7
  6
continuous
  0
ENDTAB
  0
TABLE
  2
STYLE
 70
1
  0
STYLE
  2
STANDARD
 70
0
 40
0
 41
1.0
 50
0.0
 71
0
 42
1
 3
ARIAL.TTF
 4

  0
ENDTAB
  0
TABLE
  2
VIEW
 70
0
  0
ENDTAB
  0
ENDSEC
  0
SECTION
  2
BLOCKS
  0
ENDSEC
  0
SECTION
  2
ENTITIES
  0
LINE
  8
0
 62
0
 10
266.851293
 20
233.451074
 30
0.0
 11
266.851293
 21
119.0
 31
0.0
  0
LINE
  8
0
 62
0
 10
266.851293
 20
119.0
 30
0.0
 11
-5.12090370108e-15
 21
119.0
 31
0.0
  0
CIRCLE
  8
Group
 62
0
 10
171.525393
 20
214.326324
 30
0.0
 40
1.4
  0
CIRCLE
  8
Group
 62
0
 10
247.725393
 20
214.326524
 30
0.0
 40
1.4
  0
CIRCLE
  8
Group
 62
0
 10
247.725318
 20
138.126449
 30
0.0
 40
1.4
  0
LINE
  8
0
 62
0
 10
0.0
 20
233.451074
 30
0.0
 11
266.851293
 21
233.451074
 31
0.0
  0
CIRCLE
  8
Group
 62
0
 10
171.525318
 20
138.126249
 30
0.0
 40
1.4
  0
CIRCLE
  8
Group
 62
0
 10
95.4009679998
 20
138.202299
 30
0.0
 40
1.4
  0
CIRCLE
  8
Group
 62
0
 10
95.401043
 20
214.402374
 30
0.0
 40
1.4
  0
CIRCLE
  8
Group
 62
0
 10
247.725318
 20
176.226548999
 30
0.0
 40
1.4
  0
CIRCLE
  8
Group
 62
0
 10
171.525318
 20
176.226348999
 30
0.0
 40
1.4
  0
CIRCLE
  8
Group
 62
0
 10
95.4009679998
 20
176.302398999
 30
0.0
 40
1.4
  0
CIRCLE
  8
Group
 62
0
 10
19.1251679998
 20
176.226548999
 30
0.0
 40
1.4
  0
CIRCLE
  8
Group
 62
0
 10
19.125243
 20
214.326524
 30
0.0
 40
1.4
  0
LINE
  8
Group
 62
0
 10
266.945
 20
114.531
 30
0.0
 11
266.945
 21
0.079926
 31
0.0
  0
LINE
  8
Group
 62
0
 10
266.945
 20
0.079926
 30
0.0
 11
0.093707
 21
0.079926
 31
0.0
  0
LINE
  8
Group
 62
0
 10
0.093707
 20
0.079926
 30
0.0
 11
0.093707
 21
114.531
 31
0.0
  0
LINE
  8
Group
 62
0
 10
21.8185
 20
16.6067
 30
0.0
 11
35.669
 21
16.6067
 31
0.0
  0
LINE
  8
Group
 62
0
 10
35.669
 20
16.6067
 30
0.0
 11
35.669
 21
2.75746
 31
0.0
  0
LINE
  8
Group
 62
0
 10
35.669
 20
2.75746
 30
0.0
 11
21.8185
 21
2.75746
 31
0.0
  0
LINE
  8
Group
 62
0
 10
21.8185
 20
2.75746
 30
0.0
 11
21.8185
 21
16.6067
 31
0.0
  0
LINE
  8
Group
 62
0
 10
40.8686
 20
16.6067
 30
0.0
 11
54.719
 21
16.6067
 31
0.0
  0
LINE
  8
Group
 62
0
 10
54.719
 20
16.6067
 30
0.0
 11
54.719
 21
2.75746
 31
0.0
  0
LINE
  8
Group
 62
0
 10
54.719
 20
2.75746
 30
0.0
 11
40.8686
 21
2.75746
 31
0.0
  0
LINE
  8
Group
 62
0
 10
40.8686
 20
2.75746
 30
0.0
 11
40.8686
 21
16.6067
 31
0.0
  0
LINE
  8
Group
 62
0
 10
59.9186
 20
16.6067
 30
0.0
 11
73.769
 21
16.6067
 31
0.0
  0
LINE
  8
Group
 62
0
 10
73.769
 20
16.6067
 30
0.0
 11
73.769
 21
2.75746
 31
0.0
  0
LINE
  8
Group
 62
0
 10
73.769
 20
2.75746
 30
0.0
 11
59.9186
 21
2.75746
 31
0.0
  0
LINE
  8
Group
 62
0
 10
59.9186
 20
2.75746
 30
0.0
 11
59.9186
 21
16.6067
 31
0.0
  0
LINE
  8
Group
 62
0
 10
78.9686
 20
16.6067
 30
0.0
 11
92.819
 21
16.6067
 31
0.0
  0
LINE
  8
Group
 62
0
 10
92.819
 20
16.6067
 30
0.0
 11
92.819
 21
2.75746
 31
0.0
  0
LINE
  8
Group
 62
0
 10
92.819
 20
2.75746
 30
0.0
 11
78.9686
 21
2.75746
 31
0.0
  0
LINE
  8
Group
 62
0
 10
78.9686
 20
2.75746
 30
0.0
 11
78.9686
 21
16.6067
 31
0.0
  0
LINE
  8
Group
 62
0
 10
98.0186
 20
16.6067
 30
0.0
 11
111.868
 21
16.6067
 31
0.0
  0
LINE
  8
Group
 62
0
 10
111.868
 20
16.6067
 30
0.0
 11
111.868
 21
2.75746
 31
0.0
  0
LINE
  8
Group
 62
0
 10
111.868
 20
2.75746
 30
0.0
 11
98.0186
 21
2.75746
 31
0.0
  0
LINE
  8
Group
 62
0
 10
98.0186
 20
2.75746
 30
0.0
 11
98.0186
 21
16.6067
 31
0.0
  0
LINE
  8
Group
 62
0
 10
117.069
 20
16.6067
 30
0.0
 11
130.919
 21
16.6067
 31
0.0
  0
LINE
  8
Group
 62
0
 10
130.919
 20
16.6067
 30
0.0
 11
130.919
 21
2.75746
 31
0.0
  0
LINE
  8
Group
 62
0
 10
130.919
 20
2.75746
 30
0.0
 11
117.069
 21
2.75746
 31
0.0
  0
LINE
  8
Group
 62
0
 10
117.069
 20
2.75746
 30
0.0
 11
117.069
 21
16.6067
 31
0.0
  0
LINE
  8
Group
 62
0
 10
136.119
 20
16.6067
 30
0.0
 11
149.969
 21
16.6067
 31
0.0
  0
LINE
  8
Group
 62
0
 10
149.969
 20
16.6067
 30
0.0
 11
149.969
 21
2.75746
 31
0.0
  0
LINE
  8
Group
 62
0
 10
149.969
 20
2.75746
 30
0.0
 11
136.119
 21
2.75746
 31
0.0
  0
LINE
  8
Group
 62
0
 10
136.119
 20
2.75746
 30
0.0
 11
136.119
 21
16.6067
 31
0.0
  0
LINE
  8
Group
 62
0
 10
155.169
 20
16.6067
 30
0.0
 11
169.019
 21
16.6067
 31
0.0
  0
LINE
  8
Group
 62
0
 10
169.019
 20
16.6067
 30
0.0
 11
169.019
 21
2.75746
 31
0.0
  0
LINE
  8
Group
 62
0
 10
169.019
 20
2.75746
 30
0.0
 11
155.169
 21
2.75746
 31
0.0
  0
LINE
  8
Group
 62
0
 10
155.169
 20
2.75746
 30
0.0
 11
155.169
 21
16.6067
 31
0.0
  0
LINE
  8
Group
 62
0
 10
188.069
 20
16.6067
 30
0.0
 11
188.069
 21
2.75746
 31
0.0
  0
LINE
  8
Group
 62
0
 10
188.069
 20
2.75746
 30
0.0
 11
174.219
 21
2.75746
 31
0.0
  0
LINE
  8
Group
 62
0
 10
174.219
 20
2.75746
 30
0.0
 11
174.219
 21
16.6067
 31
0.0
  0
LINE
  8
Group
 62
0
 10
193.269
 20
16.6067
 30
0.0
 11
207.119
 21
16.6067
 31
0.0
  0
LINE
  8
Group
 62
0
 10
207.119
 20
16.6067
 30
0.0
 11
207.119
 21
2.75746
 31
0.0
  0
LINE
  8
Group
 62
0
 10
207.119
 20
2.75746
 30
0.0
 11
193.269
 21
2.75746
 31
0.0
  0
LINE
  8
Group
 62
0
 10
193.269
 20
2.75746
 30
0.0
 11
193.269
 21
16.6067
 31
0.0
  0
LINE
  8
Group
 62
0
 10
212.319
 20
16.6067
 30
0.0
 11
226.169
 21
16.6067
 31
0.0
  0
LINE
  8
Group
 62
0
 10
226.169
 20
16.6067
 30
0.0
 11
226.169
 21
2.75746
 31
0.0
  0
LINE
  8
Group
 62
0
 10
226.169
 20
2.75746
 30
0.0
 11
212.319
 21
2.75746
 31
0.0
  0
LINE
  8
Group
 62
0
 10
212.319
 20
2.75746
 30
0.0
 11
212.319
 21
16.6067
 31
0.0
  0
LINE
  8
Group
 62
0
 10
231.369
 20
16.6067
 30
0.0
 11
245.219
 21
16.6067
 31
0.0
  0
LINE
  8
Group
 62
0
 10
245.219
 20
16.6067
 30
0.0
 11
245.219
 21
2.75746
 31
0.0
  0
LINE
  8
Group
 62
0
 10
245.219
 20
2.75746
 30
0.0
 11
231.369
 21
2.75746
 31
0.0
  0
LINE
  8
Group
 62
0
 10
231.369
 20
2.75746
 30
0.0
 11
231.369
 21
16.6067
 31
0.0
  0
LINE
  8
Group
 62
0
 10
250.419
 20
16.6067
 30
0.0
 11
264.269
 21
16.6067
 31
0.0
  0
LINE
  8
Group
 62
0
 10
264.269
 20
16.6067
 30
0.0
 11
264.269
 21
2.75746
 31
0.0
  0
LINE
  8
Group
 62
0
 10
264.269
 20
2.75746
 30
0.0
 11
250.419
 21
2.75746
 31
0.0
  0
LINE
  8
Group
 62
0
 10
250.419
 20
2.75746
 30
0.0
 11
250.419
 21
16.6067
 31
0.0
  0
LINE
  8
Group
 62
0
 10
2.76848
 20
35.6567
 30
0.0
 11
16.6192
 21
35.6567
 31
0.0
  0
LINE
  8
Group
 62
0
 10
16.6192
 20
35.6567
 30
0.0
 11
16.6192
 21
21.8061
 31
0.0
  0
LINE
  8
Group
 62
0
 10
16.6192
 20
21.8061
 30
0.0
 11
2.76848
 21
21.8061
 31
0.0
  0
LINE
  8
Group
 62
0
 10
2.76848
 20
21.8061
 30
0.0
 11
2.76848
 21
35.6567
 31
0.0
  0
LINE
  8
Group
 62
0
 10
21.8185
 20
35.6567
 30
0.0
 11
35.669
 21
35.6567
 31
0.0
  0
LINE
  8
Group
 62
0
 10
35.669
 20
35.6567
 30
0.0
 11
35.669
 21
21.8061
 31
0.0
  0
LINE
  8
Group
 62
0
 10
35.669
 20
21.8061
 30
0.0
 11
21.8185
 21
21.8061
 31
0.0
  0
LINE
  8
Group
 62
0
 10
21.8185
 20
21.8061
 30
0.0
 11
21.8185
 21
35.6567
 31
0.0
  0
LINE
  8
Group
 62
0
 10
40.8686
 20
35.6567
 30
0.0
 11
54.719
 21
35.6567
 31
0.0
  0
LINE
  8
Group
 62
0
 10
54.719
 20
35.6567
 30
0.0
 11
54.719
 21
21.8061
 31
0.0
  0
LINE
  8
Group
 62
0
 10
54.719
 20
21.8061
 30
0.0
 11
40.8686
 21
21.8061
 31
0.0
  0
LINE
  8
Group
 62
0
 10
40.8686
 20
21.8061
 30
0.0
 11
40.8686
 21
35.6567
 31
0.0
  0
LINE
  8
Group
 62
0
 10
59.9186
 20
35.6567
 30
0.0
 11
73.769
 21
35.6567
 31
0.0
  0
LINE
  8
Group
 62
0
 10
73.769
 20
35.6567
 30
0.0
 11
73.769
 21
21.8061
 31
0.0
  0
LINE
  8
Group
 62
0
 10
73.769
 20
21.8061
 30
0.0
 11
59.9186
 21
21.8061
 31
0.0
  0
LINE
  8
Group
 62
0
 10
59.9186
 20
21.8061
 30
0.0
 11
59.9186
 21
35.6567
 31
0.0
  0
LINE
  8
Group
 62
0
 10
78.9686
 20
35.6567
 30
0.0
 11
92.819
 21
35.6567
 31
0.0
  0
LINE
  8
Group
 62
0
 10
92.819
 20
35.6567
 30
0.0
 11
92.819
 21
21.8061
 31
0.0
  0
LINE
  8
Group
 62
0
 10
92.819
 20
21.8061
 30
0.0
 11
78.9686
 21
21.8061
 31
0.0
  0
LINE
  8
Group
 62
0
 10
78.9686
 20
21.8061
 30
0.0
 11
78.9686
 21
35.6567
 31
0.0
  0
LINE
  8
Group
 62
0
 10
98.0186
 20
35.6567
 30
0.0
 11
111.868
 21
35.6567
 31
0.0
  0
LINE
  8
Group
 62
0
 10
111.868
 20
35.6567
 30
0.0
 11
111.868
 21
21.8061
 31
0.0
  0
LINE
  8
Group
 62
0
 10
111.868
 20
21.8061
 30
0.0
 11
98.0186
 21
21.8061
 31
0.0
  0
LINE
  8
Group
 62
0
 10
98.0186
 20
21.8061
 30
0.0
 11
98.0186
 21
35.6567
 31
0.0
  0
LINE
  8
Group
 62
0
 10
117.069
 20
35.6567
 30
0.0
 11
130.919
 21
35.6567
 31
0.0
  0
LINE
  8
Group
 62
0
 10
130.919
 20
35.6567
 30
0.0
 11
130.919
 21
21.8061
 31
0.0
  0
LINE
  8
Group
 62
0
 10
117.069
 20
21.8061
 30
0.0
 11
117.069
 21
35.6567
 31
0.0
  0
LINE
  8
Group
 62
0
 10
136.119
 20
35.6567
 30
0.0
 11
149.969
 21
35.6567
 31
0.0
  0
LINE
  8
Group
 62
0
 10
149.969
 20
35.6567
 30
0.0
 11
149.969
 21
21.8061
 31
0.0
  0
LINE
  8
Group
 62
0
 10
149.969
 20
21.8061
 30
0.0
 11
136.119
 21
21.8061
 31
0.0
  0
LINE
  8
Group
 62
0
 10
136.119
 20
21.8061
 30
0.0
 11
136.119
 21
35.6567
 31
0.0
  0
LINE
  8
Group
 62
0
 10
155.169
 20
35.6567
 30
0.0
 11
169.019
 21
35.6567
 31
0.0
  0
LINE
  8
Group
 62
0
 10
169.019
 20
35.6567
 30
0.0
 11
169.019
 21
21.8061
 31
0.0
  0
LINE
  8
Group
 62
0
 10
169.019
 20
21.8061
 30
0.0
 11
155.169
 21
21.8061
 31
0.0
  0
LINE
  8
Group
 62
0
 10
155.169
 20
21.8061
 30
0.0
 11
155.169
 21
35.6567
 31
0.0
  0
LINE
  8
Group
 62
0
 10
174.219
 20
35.6567
 30
0.0
 11
188.069
 21
35.6567
 31
0.0
  0
LINE
  8
Group
 62
0
 10
188.069
 20
35.6567
 30
0.0
 11
188.069
 21
21.8061
 31
0.0
  0
LINE
  8
Group
 62
0
 10
188.069
 20
21.8061
 30
0.0
 11
174.219
 21
21.8061
 31
0.0
  0
LINE
  8
Group
 62
0
 10
174.219
 20
21.8061
 30
0.0
 11
174.219
 21
35.6567
 31
0.0
  0
LINE
  8
Group
 62
0
 10
193.269
 20
35.6567
 30
0.0
 11
207.119
 21
35.6567
 31
0.0
  0
LINE
  8
Group
 62
0
 10
207.119
 20
35.6567
 30
0.0
 11
207.119
 21
21.8061
 31
0.0
  0
LINE
  8
Group
 62
0
 10
207.119
 20
21.8061
 30
0.0
 11
193.269
 21
21.8061
 31
0.0
  0
LINE
  8
Group
 62
0
 10
193.269
 20
21.8061
 30
0.0
 11
193.269
 21
35.6567
 31
0.0
  0
LINE
  8
Group
 62
0
 10
212.319
 20
35.6567
 30
0.0
 11
226.169
 21
35.6567
 31
0.0
  0
LINE
  8
Group
 62
0
 10
226.169
 20
35.6567
 30
0.0
 11
226.169
 21
21.8061
 31
0.0
  0
LINE
  8
Group
 62
0
 10
226.169
 20
21.8061
 30
0.0
 11
212.319
 21
21.8061
 31
0.0
  0
LINE
  8
Group
 62
0
 10
212.319
 20
21.8061
 30
0.0
 11
212.319
 21
35.6567
 31
0.0
  0
LINE
  8
Group
 62
0
 10
231.369
 20
35.6567
 30
0.0
 11
245.219
 21
35.6567
 31
0.0
  0
LINE
  8
Group
 62
0
 10
245.219
 20
35.6567
 30
0.0
 11
245.219
 21
21.8061
 31
0.0
  0
LINE
  8
Group
 62
0
 10
245.219
 20
21.8061
 30
0.0
 11
231.369
 21
21.8061
 31
0.0
  0
LINE
  8
Group
 62
0
 10
231.369
 20
21.8061
 30
0.0
 11
231.369
 21
35.6567
 31
0.0
  0
LINE
  8
Group
 62
0
 10
250.419
 20
35.6567
 30
0.0
 11
264.269
 21
35.6567
 31
0.0
  0
LINE
  8
Group
 62
0
 10
264.269
 20
35.6567
 30
0.0
 11
264.269
 21
21.8061
 31
0.0
  0
LINE
  8
Group
 62
0
 10
264.269
 20
21.8061
 30
0.0
 11
250.419
 21
21.8061
 31
0.0
  0
LINE
  8
Group
 62
0
 10
250.419
 20
21.8061
 30
0.0
 11
250.419
 21
35.6567
 31
0.0
  0
LINE
  8
Group
 62
0
 10
2.76848
 20
54.7067
 30
0.0
 11
16.6192
 21
54.7067
 31
0.0
  0
LINE
  8
Group
 62
0
 10
16.6192
 20
54.7067
 30
0.0
 11
16.6192
 21
40.8563
 31
0.0
  0
LINE
  8
Group
 62
0
 10
16.6192
 20
40.8563
 30
0.0
 11
2.76848
 21
40.8563
 31
0.0
  0
LINE
  8
Group
 62
0
 10
2.76848
 20
40.8563
 30
0.0
 11
2.76848
 21
54.7067
 31
0.0
  0
LINE
  8
Group
 62
0
 10
21.8185
 20
54.7067
 30
0.0
 11
35.669
 21
54.7067
 31
0.0
  0
LINE
  8
Group
 62
0
 10
35.669
 20
54.7067
 30
0.0
 11
35.669
 21
40.8563
 31
0.0
  0
LINE
  8
Group
 62
0
 10
35.669
 20
40.8563
 30
0.0
 11
21.8185
 21
40.8563
 31
0.0
  0
LINE
  8
Group
 62
0
 10
21.8185
 20
40.8563
 30
0.0
 11
21.8185
 21
54.7067
 31
0.0
  0
LINE
  8
Group
 62
0
 10
40.8686
 20
54.7067
 30
0.0
 11
54.719
 21
54.7067
 31
0.0
  0
LINE
  8
Group
 62
0
 10
54.719
 20
54.7067
 30
0.0
 11
54.719
 21
40.8563
 31
0.0
  0
LINE
  8
Group
 62
0
 10
54.719
 20
40.8563
 30
0.0
 11
40.8686
 21
40.8563
 31
0.0
  0
LINE
  8
Group
 62
0
 10
40.8686
 20
40.8563
 30
0.0
 11
40.8686
 21
54.7067
 31
0.0
  0
LINE
  8
Group
 62
0
 10
59.9186
 20
54.7067
 30
0.0
 11
73.769
 21
54.7067
 31
0.0
  0
LINE
  8
Group
 62
0
 10
73.769
 20
54.7067
 30
0.0
 11
73.769
 21
40.8563
 31
0.0
  0
LINE
  8
Group
 62
0
 10
73.769
 20
40.8563
 30
0.0
 11
59.9186
 21
40.8563
 31
0.0
  0
LINE
  8
Group
 62
0
 10
59.9186
 20
40.8563
 30
0.0
 11
59.9186
 21
54.7067
 31
0.0
  0
LINE
  8
Group
 62
0
 10
78.9686
 20
54.7067
 30
0.0
 11
92.819
 21
54.7067
 31
0.0
  0
LINE
  8
Group
 62
0
 10
92.819
 20
54.7067
 30
0.0
 11
92.819
 21
40.8563
 31
0.0
  0
LINE
  8
Group
 62
0
 10
92.819
 20
40.8563
 30
0.0
 11
78.9686
 21
40.8563
 31
0.0
  0
LINE
  8
Group
 62
0
 10
78.9686
 20
40.8563
 30
0.0
 11
78.9686
 21
54.7067
 31
0.0
  0
LINE
  8
Group
 62
0
 10
98.0186
 20
54.7067
 30
0.0
 11
111.868
 21
54.7067
 31
0.0
  0
LINE
  8
Group
 62
0
 10
111.868
 20
54.7067
 30
0.0
 11
111.868
 21
40.8563
 31
0.0
  0
LINE
  8
Group
 62
0
 10
111.868
 20
40.8563
 30
0.0
 11
98.0186
 21
40.8563
 31
0.0
  0
LINE
  8
Group
 62
0
 10
98.0186
 20
40.8563
 30
0.0
 11
98.0186
 21
54.7067
 31
0.0
  0
LINE
  8
Group
 62
0
 10
117.069
 20
54.7067
 30
0.0
 11
130.919
 21
54.7067
 31
0.0
  0
LINE
  8
Group
 62
0
 10
130.919
 20
54.7067
 30
0.0
 11
130.919
 21
40.8563
 31
0.0
  0
LINE
  8
Group
 62
0
 10
130.919
 20
40.8563
 30
0.0
 11
117.069
 21
40.8563
 31
0.0
  0
LINE
  8
Group
 62
0
 10
117.069
 20
40.8563
 30
0.0
 11
117.069
 21
54.7067
 31
0.0
  0
LINE
  8
Group
 62
0
 10
136.119
 20
54.7067
 30
0.0
 11
149.969
 21
54.7067
 31
0.0
  0
LINE
  8
Group
 62
0
 10
149.969
 20
54.7067
 30
0.0
 11
149.969
 21
40.8563
 31
0.0
  0
LINE
  8
Group
 62
0
 10
149.969
 20
40.8563
 30
0.0
 11
136.119
 21
40.8563
 31
0.0
  0
LINE
  8
Group
 62
0
 10
136.119
 20
40.8563
 30
0.0
 11
136.119
 21
54.7067
 31
0.0
  0
LINE
  8
Group
 62
0
 10
155.169
 20
54.7067
 30
0.0
 11
169.019
 21
54.7067
 31
0.0
  0
LINE
  8
Group
 62
0
 10
169.019
 20
54.7067
 30
0.0
 11
169.019
 21
40.8563
 31
0.0
  0
LINE
  8
Group
 62
0
 10
169.019
 20
40.8563
 30
0.0
 11
155.169
 21
40.8563
 31
0.0
  0
LINE
  8
Group
 62
0
 10
155.169
 20
40.8563
 30
0.0
 11
155.169
 21
54.7067
 31
0.0
  0
LINE
  8
Group
 62
0
 10
174.219
 20
54.7067
 30
0.0
 11
188.069
 21
54.7067
 31
0.0
  0
LINE
  8
Group
 62
0
 10
188.069
 20
54.7067
 30
0.0
 11
188.069
 21
40.8563
 31
0.0
  0
LINE
  8
Group
 62
0
 10
188.069
 20
40.8563
 30
0.0
 11
174.219
 21
40.8563
 31
0.0
  0
LINE
  8
Group
 62
0
 10
174.219
 20
40.8563
 30
0.0
 11
174.219
 21
54.7067
 31
0.0
  0
LINE
  8
Group
 62
0
 10
193.269
 20
54.7067
 30
0.0
 11
207.119
 21
54.7067
 31
0.0
  0
LINE
  8
Group
 62
0
 10
207.119
 20
54.7067
 30
0.0
 11
207.119
 21
40.8563
 31
0.0
  0
LINE
  8
Group
 62
0
 10
207.119
 20
40.8563
 30
0.0
 11
193.269
 21
40.8563
 31
0.0
  0
LINE
  8
Group
 62
0
 10
193.269
 20
40.8563
 30
0.0
 11
193.269
 21
54.7067
 31
0.0
  0
LINE
  8
Group
 62
0
 10
212.319
 20
54.7067
 30
0.0
 11
226.169
 21
54.7067
 31
0.0
  0
LINE
  8
Group
 62
0
 10
226.169
 20
54.7067
 30
0.0
 11
226.169
 21
40.8563
 31
0.0
  0
LINE
  8
Group
 62
0
 10
226.169
 20
40.8563
 30
0.0
 11
212.319
 21
40.8563
 31
0.0
  0
LINE
  8
Group
 62
0
 10
212.319
 20
40.8563
 30
0.0
 11
212.319
 21
54.7067
 31
0.0
  0
LINE
  8
Group
 62
0
 10
231.369
 20
54.7067
 30
0.0
 11
245.219
 21
54.7067
 31
0.0
  0
LINE
  8
Group
 62
0
 10
245.219
 20
54.7067
 30
0.0
 11
245.219
 21
40.8563
 31
0.0
  0
LINE
  8
Group
 62
0
 10
245.219
 20
40.8563
 30
0.0
 11
231.369
 21
40.8563
 31
0.0
  0
LINE
  8
Group
 62
0
 10
231.369
 20
40.8563
 30
0.0
 11
231.369
 21
54.7067
 31
0.0
  0
LINE
  8
Group
 62
0
 10
250.419
 20
54.7067
 30
0.0
 11
264.269
 21
54.7067
 31
0.0
  0
LINE
  8
Group
 62
0
 10
264.269
 20
54.7067
 30
0.0
 11
264.269
 21
40.8563
 31
0.0
  0
LINE
  8
Group
 62
0
 10
264.269
 20
40.8563
 30
0.0
 11
250.419
 21
40.8563
 31
0.0
  0
LINE
  8
Group
 62
0
 10
250.419
 20
40.8563
 30
0.0
 11
250.419
 21
54.7067
 31
0.0
  0
LINE
  8
Group
 62
0
 10
2.76848
 20
73.7567
 30
0.0
 11
16.6192
 21
73.7567
 31
0.0
  0
LINE
  8
Group
 62
0
 10
16.6192
 20
73.7567
 30
0.0
 11
16.6192
 21
59.9063
 31
0.0
  0
LINE
  8
Group
 62
0
 10
16.6192
 20
59.9063
 30
0.0
 11
2.76848
 21
59.9063
 31
0.0
  0
LINE
  8
Group
 62
0
 10
2.76848
 20
59.9063
 30
0.0
 11
2.76848
 21
73.7567
 31
0.0
  0
LINE
  8
Group
 62
0
 10
21.8185
 20
73.7567
 30
0.0
 11
35.669
 21
73.7567
 31
0.0
  0
LINE
  8
Group
 62
0
 10
35.669
 20
73.7567
 30
0.0
 11
35.669
 21
59.9063
 31
0.0
  0
LINE
  8
Group
 62
0
 10
21.8185
 20
59.9063
 30
0.0
 11
21.8185
 21
73.7567
 31
0.0
  0
LINE
  8
Group
 62
0
 10
40.8686
 20
73.7567
 30
0.0
 11
54.719
 21
73.7567
 31
0.0
  0
LINE
  8
Group
 62
0
 10
54.719
 20
73.7567
 30
0.0
 11
54.719
 21
59.9063
 31
0.0
  0
LINE
  8
Group
 62
0
 10
54.719
 20
59.9063
 30
0.0
 11
40.8686
 21
59.9063
 31
0.0
  0
LINE
  8
Group
 62
0
 10
40.8686
 20
59.9063
 30
0.0
 11
40.8686
 21
73.7567
 31
0.0
  0
LINE
  8
Group
 62
0
 10
73.769
 20
73.7567
 30
0.0
 11
73.769
 21
59.9063
 31
0.0
  0
LINE
  8
Group
 62
0
 10
73.769
 20
59.9063
 30
0.0
 11
59.9186
 21
59.9063
 31
0.0
  0
LINE
  8
Group
 62
0
 10
59.9186
 20
59.9063
 30
0.0
 11
59.9186
 21
73.7567
 31
0.0
  0
LINE
  8
Group
 62
0
 10
78.9686
 20
73.7567
 30
0.0
 11
92.819
 21
73.7567
 31
0.0
  0
LINE
  8
Group
 62
0
 10
92.819
 20
73.7567
 30
0.0
 11
92.819
 21
59.9063
 31
0.0
  0
LINE
  8
Group
 62
0
 10
92.819
 20
59.9063
 30
0.0
 11
78.9686
 21
59.9063
 31
0.0
  0
LINE
  8
Group
 62
0
 10
78.9686
 20
59.9063
 30
0.0
 11
78.9686
 21
73.7567
 31
0.0
  0
LINE
  8
Group
 62
0
 10
98.0186
 20
73.7567
 30
0.0
 11
111.868
 21
73.7567
 31
0.0
  0
LINE
  8
Group
 62
0
 10
111.868
 20
73.7567
 30
0.0
 11
111.868
 21
59.9063
 31
0.0
  0
LINE
  8
Group
 62
0
 10
111.868
 20
59.9063
 30
0.0
 11
98.0186
 21
59.9063
 31
0.0
  0
LINE
  8
Group
 62
0
 10
98.0186
 20
59.9063
 30
0.0
 11
98.0186
 21
73.7567
 31
0.0
  0
LINE
  8
Group
 62
0
 10
117.069
 20
73.7567
 30
0.0
 11
130.919
 21
73.7567
 31
0.0
  0
LINE
  8
Group
 62
0
 10
130.919
 20
73.7567
 30
0.0
 11
130.919
 21
59.9063
 31
0.0
  0
LINE
  8
Group
 62
0
 10
130.919
 20
59.9063
 30
0.0
 11
117.069
 21
59.9063
 31
0.0
  0
LINE
  8
Group
 62
0
 10
117.069
 20
59.9063
 30
0.0
 11
117.069
 21
73.7567
 31
0.0
  0
LINE
  8
Group
 62
0
 10
136.119
 20
73.7567
 30
0.0
 11
149.969
 21
73.7567
 31
0.0
  0
LINE
  8
Group
 62
0
 10
149.969
 20
73.7567
 30
0.0
 11
149.969
 21
59.9063
 31
0.0
  0
LINE
  8
Group
 62
0
 10
149.969
 20
59.9063
 30
0.0
 11
136.119
 21
59.9063
 31
0.0
  0
LINE
  8
Group
 62
0
 10
136.119
 20
59.9063
 30
0.0
 11
136.119
 21
73.7567
 31
0.0
  0
LINE
  8
Group
 62
0
 10
155.169
 20
73.7567
 30
0.0
 11
169.019
 21
73.7567
 31
0.0
  0
LINE
  8
Group
 62
0
 10
169.019
 20
73.7567
 30
0.0
 11
169.019
 21
59.9063
 31
0.0
  0
LINE
  8
Group
 62
0
 10
155.169
 20
59.9063
 30
0.0
 11
155.169
 21
73.7567
 31
0.0
  0
LINE
  8
Group
 62
0
 10
174.219
 20
73.7567
 30
0.0
 11
188.069
 21
73.7567
 31
0.0
  0
LINE
  8
Group
 62
0
 10
188.069
 20
73.7567
 30
0.0
 11
188.069
 21
59.9063
 31
0.0
  0
LINE
  8
Group
 62
0
 10
188.069
 20
59.9063
 30
0.0
 11
174.219
 21
59.9063
 31
0.0
  0
LINE
  8
Group
 62
0
 10
174.219
 20
59.9063
 30
0.0
 11
174.219
 21
73.7567
 31
0.0
  0
LINE
  8
Group
 62
0
 10
193.269
 20
73.7567
 30
0.0
 11
207.119
 21
73.7567
 31
0.0
  0
LINE
  8
Group
 62
0
 10
207.119
 20
73.7567
 30
0.0
 11
207.119
 21
59.9063
 31
0.0
  0
LINE
  8
Group
 62
0
 10
207.119
 20
59.9063
 30
0.0
 11
193.269
 21
59.9063
 31
0.0
  0
LINE
  8
Group
 62
0
 10
193.269
 20
59.9063
 30
0.0
 11
193.269
 21
73.7567
 31
0.0
  0
LINE
  8
Group
 62
0
 10
212.319
 20
73.7567
 30
0.0
 11
226.169
 21
73.7567
 31
0.0
  0
LINE
  8
Group
 62
0
 10
226.169
 20
73.7567
 30
0.0
 11
226.169
 21
59.9063
 31
0.0
  0
LINE
  8
Group
 62
0
 10
226.169
 20
59.9063
 30
0.0
 11
212.319
 21
59.9063
 31
0.0
  0
LINE
  8
Group
 62
0
 10
212.319
 20
59.9063
 30
0.0
 11
212.319
 21
73.7567
 31
0.0
  0
LINE
  8
Group
 62
0
 10
231.369
 20
73.7567
 30
0.0
 11
245.219
 21
73.7567
 31
0.0
  0
LINE
  8
Group
 62
0
 10
245.219
 20
73.7567
 30
0.0
 11
245.219
 21
59.9063
 31
0.0
  0
LINE
  8
Group
 62
0
 10
245.219
 20
59.9063
 30
0.0
 11
231.369
 21
59.9063
 31
0.0
  0
LINE
  8
Group
 62
0
 10
231.369
 20
59.9063
 30
0.0
 11
231.369
 21
73.7567
 31
0.0
  0
LINE
  8
Group
 62
0
 10
250.419
 20
73.7567
 30
0.0
 11
264.269
 21
73.7567
 31
0.0
  0
LINE
  8
Group
 62
0
 10
264.269
 20
73.7567
 30
0.0
 11
264.269
 21
59.9063
 31
0.0
  0
LINE
  8
Group
 62
0
 10
264.269
 20
59.9063
 30
0.0
 11
250.419
 21
59.9063
 31
0.0
  0
LINE
  8
Group
 62
0
 10
250.419
 20
59.9063
 30
0.0
 11
250.419
 21
73.7567
 31
0.0
  0
LINE
  8
Group
 62
0
 10
2.76848
 20
92.8067
 30
0.0
 11
16.6192
 21
92.8067
 31
0.0
  0
LINE
  8
Group
 62
0
 10
16.6192
 20
92.8067
 30
0.0
 11
16.6192
 21
78.9563
 31
0.0
  0
LINE
  8
Group
 62
0
 10
16.6192
 20
78.9563
 30
0.0
 11
2.76848
 21
78.9563
 31
0.0
  0
LINE
  8
Group
 62
0
 10
2.76848
 20
78.9563
 30
0.0
 11
2.76848
 21
92.8067
 31
0.0
  0
LINE
  8
Group
 62
0
 10
21.8185
 20
92.8067
 30
0.0
 11
35.669
 21
92.8067
 31
0.0
  0
LINE
  8
Group
 62
0
 10
35.669
 20
92.8067
 30
0.0
 11
35.669
 21
78.9563
 31
0.0
  0
LINE
  8
Group
 62
0
 10
35.669
 20
78.9563
 30
0.0
 11
21.8185
 21
78.9563
 31
0.0
  0
LINE
  8
Group
 62
0
 10
21.8185
 20
78.9563
 30
0.0
 11
21.8185
 21
92.8067
 31
0.0
  0
LINE
  8
Group
 62
0
 10
40.8686
 20
92.8067
 30
0.0
 11
54.719
 21
92.8067
 31
0.0
  0
LINE
  8
Group
 62
0
 10
54.719
 20
92.8067
 30
0.0
 11
54.719
 21
78.9563
 31
0.0
  0
LINE
  8
Group
 62
0
 10
54.719
 20
78.9563
 30
0.0
 11
40.8686
 21
78.9563
 31
0.0
  0
LINE
  8
Group
 62
0
 10
40.8686
 20
78.9563
 30
0.0
 11
40.8686
 21
92.8067
 31
0.0
  0
LINE
  8
Group
 62
0
 10
59.9186
 20
92.8067
 30
0.0
 11
73.769
 21
92.8067
 31
0.0
  0
LINE
  8
Group
 62
0
 10
73.769
 20
92.8067
 30
0.0
 11
73.769
 21
78.9563
 31
0.0
  0
LINE
  8
Group
 62
0
 10
73.769
 20
78.9563
 30
0.0
 11
59.9186
 21
78.9563
 31
0.0
  0
LINE
  8
Group
 62
0
 10
59.9186
 20
78.9563
 30
0.0
 11
59.9186
 21
92.8067
 31
0.0
  0
LINE
  8
Group
 62
0
 10
78.9686
 20
92.8067
 30
0.0
 11
92.819
 21
92.8067
 31
0.0
  0
LINE
  8
Group
 62
0
 10
92.819
 20
92.8067
 30
0.0
 11
92.819
 21
78.9563
 31
0.0
  0
LINE
  8
Group
 62
0
 10
92.819
 20
78.9563
 30
0.0
 11
78.9686
 21
78.9563
 31
0.0
  0
LINE
  8
Group
 62
0
 10
78.9686
 20
78.9563
 30
0.0
 11
78.9686
 21
92.8067
 31
0.0
  0
LINE
  8
Group
 62
0
 10
98.0186
 20
92.8067
 30
0.0
 11
111.868
 21
92.8067
 31
0.0
  0
LINE
  8
Group
 62
0
 10
111.868
 20
92.8067
 30
0.0
 11
111.868
 21
78.9563
 31
0.0
  0
LINE
  8
Group
 62
0
 10
111.868
 20
78.9563
 30
0.0
 11
98.0186
 21
78.9563
 31
0.0
  0
LINE
  8
Group
 62
0
 10
98.0186
 20
78.9563
 30
0.0
 11
98.0186
 21
92.8067
 31
0.0
  0
LINE
  8
Group
 62
0
 10
117.069
 20
92.8067
 30
0.0
 11
130.919
 21
92.8067
 31
0.0
  0
LINE
  8
Group
 62
0
 10
130.919
 20
92.8067
 30
0.0
 11
130.919
 21
78.9563
 31
0.0
  0
LINE
  8
Group
 62
0
 10
130.919
 20
78.9563
 30
0.0
 11
117.069
 21
78.9563
 31
0.0
  0
LINE
  8
Group
 62
0
 10
117.069
 20
78.9563
 30
0.0
 11
117.069
 21
92.8067
 31
0.0
  0
LINE
  8
Group
 62
0
 10
136.119
 20
92.8067
 30
0.0
 11
149.969
 21
92.8067
 31
0.0
  0
LINE
  8
Group
 62
0
 10
149.969
 20
92.8067
 30
0.0
 11
149.969
 21
78.9563
 31
0.0
  0
LINE
  8
Group
 62
0
 10
149.969
 20
78.9563
 30
0.0
 11
136.119
 21
78.9563
 31
0.0
  0
LINE
  8
Group
 62
0
 10
136.119
 20
78.9563
 30
0.0
 11
136.119
 21
92.8067
 31
0.0
  0
LINE
  8
Group
 62
0
 10
155.169
 20
92.8067
 30
0.0
 11
169.019
 21
92.8067
 31
0.0
  0
LINE
  8
Group
 62
0
 10
169.019
 20
92.8067
 30
0.0
 11
169.019
 21
78.9563
 31
0.0
  0
LINE
  8
Group
 62
0
 10
169.019
 20
78.9563
 30
0.0
 11
155.169
 21
78.9563
 31
0.0
  0
LINE
  8
Group
 62
0
 10
155.169
 20
78.9563
 30
0.0
 11
155.169
 21
92.8067
 31
0.0
  0
LINE
  8
Group
 62
0
 10
174.219
 20
92.8067
 30
0.0
 11
188.069
 21
92.8067
 31
0.0
  0
LINE
  8
Group
 62
0
 10
188.069
 20
92.8067
 30
0.0
 11
188.069
 21
78.9563
 31
0.0
  0
LINE
  8
Group
 62
0
 10
188.069
 20
78.9563
 30
0.0
 11
174.219
 21
78.9563
 31
0.0
  0
LINE
  8
Group
 62
0
 10
174.219
 20
78.9563
 30
0.0
 11
174.219
 21
92.8067
 31
0.0
  0
LINE
  8
Group
 62
0
 10
193.269
 20
92.8067
 30
0.0
 11
207.119
 21
92.8067
 31
0.0
  0
LINE
  8
Group
 62
0
 10
207.119
 20
92.8067
 30
0.0
 11
207.119
 21
78.9563
 31
0.0
  0
LINE
  8
Group
 62
0
 10
207.119
 20
78.9563
 30
0.0
 11
193.269
 21
78.9563
 31
0.0
  0
LINE
  8
Group
 62
0
 10
193.269
 20
78.9563
 30
0.0
 11
193.269
 21
92.8067
 31
0.0
  0
LINE
  8
Group
 62
0
 10
212.319
 20
92.8067
 30
0.0
 11
226.169
 21
92.8067
 31
0.0
  0
LINE
  8
Group
 62
0
 10
226.169
 20
92.8067
 30
0.0
 11
226.169
 21
78.9563
 31
0.0
  0
LINE
  8
Group
 62
0
 10
226.169
 20
78.9563
 30
0.0
 11
212.319
 21
78.9563
 31
0.0
  0
LINE
  8
Group
 62
0
 10
212.319
 20
78.9563
 30
0.0
 11
212.319
 21
92.8067
 31
0.0
  0
LINE
  8
Group
 62
0
 10
231.369
 20
92.8067
 30
0.0
 11
245.219
 21
92.8067
 31
0.0
  0
LINE
  8
Group
 62
0
 10
245.219
 20
92.8067
 30
0.0
 11
245.219
 21
78.9563
 31
0.0
  0
LINE
  8
Group
 62
0
 10
245.219
 20
78.9563
 30
0.0
 11
231.369
 21
78.9563
 31
0.0
  0
LINE
  8
Group
 62
0
 10
231.369
 20
78.9563
 30
0.0
 11
231.369
 21
92.8067
 31
0.0
  0
LINE
  8
Group
 62
0
 10
250.419
 20
92.8067
 30
0.0
 11
264.269
 21
92.8067
 31
0.0
  0
LINE
  8
Group
 62
0
 10
264.269
 20
92.8067
 30
0.0
 11
264.269
 21
78.9563
 31
0.0
  0
LINE
  8
Group
 62
0
 10
264.269
 20
78.9563
 30
0.0
 11
250.419
 21
78.9563
 31
0.0
  0
LINE
  8
Group
 62
0
 10
250.419
 20
78.9563
 30
0.0
 11
250.419
 21
92.8067
 31
0.0
  0
LINE
  8
Group
 62
0
 10
2.76848
 20
111.857
 30
0.0
 11
16.6192
 21
111.857
 31
0.0
  0
LINE
  8
Group
 62
0
 10
16.6192
 20
111.857
 30
0.0
 11
16.6192
 21
98.0062
 31
0.0
  0
LINE
  8
Group
 62
0
 10
16.6192
 20
98.0062
 30
0.0
 11
2.76848
 21
98.0062
 31
0.0
  0
LINE
  8
Group
 62
0
 10
2.76848
 20
98.0062
 30
0.0
 11
2.76848
 21
111.857
 31
0.0
  0
LINE
  8
Group
 62
0
 10
21.8185
 20
111.857
 30
0.0
 11
35.669
 21
111.857
 31
0.0
  0
LINE
  8
Group
 62
0
 10
35.669
 20
111.857
 30
0.0
 11
35.669
 21
98.0062
 31
0.0
  0
LINE
  8
Group
 62
0
 10
21.8185
 20
98.0062
 30
0.0
 11
21.8185
 21
111.857
 31
0.0
  0
LINE
  8
Group
 62
0
 10
40.8686
 20
111.857
 30
0.0
 11
54.719
 21
111.857
 31
0.0
  0
LINE
  8
Group
 62
0
 10
54.719
 20
111.857
 30
0.0
 11
54.719
 21
98.0062
 31
0.0
  0
LINE
  8
Group
 62
0
 10
54.719
 20
98.0062
 30
0.0
 11
40.8686
 21
98.0062
 31
0.0
  0
LINE
  8
Group
 62
0
 10
40.8686
 20
98.0062
 30
0.0
 11
40.8686
 21
111.857
 31
0.0
  0
LINE
  8
Group
 62
0
 10
59.9186
 20
111.857
 30
0.0
 11
73.769
 21
111.857
 31
0.0
  0
LINE
  8
Group
 62
0
 10
73.769
 20
111.857
 30
0.0
 11
73.769
 21
98.0062
 31
0.0
  0
LINE
  8
Group
 62
0
 10
59.9186
 20
98.0062
 30
0.0
 11
59.9186
 21
111.857
 31
0.0
  0
LINE
  8
Group
 62
0
 10
78.9686
 20
111.857
 30
0.0
 11
92.819
 21
111.857
 31
0.0
  0
LINE
  8
Group
 62
0
 10
92.819
 20
111.857
 30
0.0
 11
92.819
 21
98.0062
 31
0.0
  0
LINE
  8
Group
 62
0
 10
78.9686
 20
98.0062
 30
0.0
 11
78.9686
 21
111.857
 31
0.0
  0
LINE
  8
Group
 62
0
 10
98.0186
 20
111.857
 30
0.0
 11
111.868
 21
111.857
 31
0.0
  0
LINE
  8
Group
 62
0
 10
111.868
 20
98.0062
 30
0.0
 11
98.0186
 21
98.0062
 31
0.0
  0
LINE
  8
Group
 62
0
 10
98.0186
 20
98.0062
 30
0.0
 11
98.0186
 21
111.857
 31
0.0
  0
LINE
  8
Group
 62
0
 10
117.069
 20
111.857
 30
0.0
 11
130.919
 21
111.857
 31
0.0
  0
LINE
  8
Group
 62
0
 10
130.919
 20
111.857
 30
0.0
 11
130.919
 21
98.0062
 31
0.0
  0
LINE
  8
Group
 62
0
 10
130.919
 20
98.0062
 30
0.0
 11
117.069
 21
98.0062
 31
0.0
  0
LINE
  8
Group
 62
0
 10
117.069
 20
98.0062
 30
0.0
 11
117.069
 21
111.857
 31
0.0
  0
LINE
  8
Group
 62
0
 10
136.119
 20
111.857
 30
0.0
 11
149.969
 21
111.857
 31
0.0
  0
LINE
  8
Group
 62
0
 10
149.969
 20
111.857
 30
0.0
 11
149.969
 21
98.0062
 31
0.0
  0
LINE
  8
Group
 62
0
 10
149.969
 20
98.0062
 30
0.0
 11
136.119
 21
98.0062
 31
0.0
  0
LINE
  8
Group
 62
0
 10
136.119
 20
98.0062
 30
0.0
 11
136.119
 21
111.857
 31
0.0
  0
LINE
  8
Group
 62
0
 10
155.169
 20
111.857
 30
0.0
 11
169.019
 21
111.857
 31
0.0
  0
LINE
  8
Group
 62
0
 10
169.019
 20
111.857
 30
0.0
 11
169.019
 21
98.0062
 31
0.0
  0
LINE
  8
Group
 62
0
 10
169.019
 20
98.0062
 30
0.0
 11
155.169
 21
98.0062
 31
0.0
  0
LINE
  8
Group
 62
0
 10
155.169
 20
98.0062
 30
0.0
 11
155.169
 21
111.857
 31
0.0
  0
LINE
  8
Group
 62
0
 10
174.219
 20
111.857
 30
0.0
 11
188.069
 21
111.857
 31
0.0
  0
LINE
  8
Group
 62
0
 10
188.069
 20
111.857
 30
0.0
 11
188.069
 21
98.0062
 31
0.0
  0
LINE
  8
Group
 62
0
 10
188.069
 20
98.0062
 30
0.0
 11
174.219
 21
98.0062
 31
0.0
  0
LINE
  8
Group
 62
0
 10
174.219
 20
98.0062
 30
0.0
 11
174.219
 21
111.857
 31
0.0
  0
LINE
  8
Group
 62
0
 10
193.269
 20
111.857
 30
0.0
 11
207.119
 21
111.857
 31
0.0
  0
LINE
  8
Group
 62
0
 10
207.119
 20
111.857
 30
0.0
 11
207.119
 21
98.0062
 31
0.0
  0
LINE
  8
Group
 62
0
 10
207.119
 20
98.0062
 30
0.0
 11
193.269
 21
98.0062
 31
0.0
  0
LINE
  8
Group
 62
0
 10
193.269
 20
98.0062
 30
0.0
 11
193.269
 21
111.857
 31
0.0
  0
LINE
  8
Group
 62
0
 10
212.319
 20
111.857
 30
0.0
 11
226.169
 21
111.857
 31
0.0
  0
LINE
  8
Group
 62
0
 10
226.169
 20
111.857
 30
0.0
 11
226.169
 21
98.0062
 31
0.0
  0
LINE
  8
Group
 62
0
 10
226.169
 20
98.0062
 30
0.0
 11
212.319
 21
98.0062
 31
0.0
  0
LINE
  8
Group
 62
0
 10
212.319
 20
98.0062
 30
0.0
 11
212.319
 21
111.857
 31
0.0
  0
LINE
  8
Group
 62
0
 10
231.369
 20
111.857
 30
0.0
 11
245.219
 21
111.857
 31
0.0
  0
LINE
  8
Group
 62
0
 10
245.219
 20
111.857
 30
0.0
 11
245.219
 21
98.0062
 31
0.0
  0
LINE
  8
Group
 62
0
 10
245.219
 20
98.0062
 30
0.0
 11
231.369
 21
98.0062
 31
0.0
  0
LINE
  8
Group
 62
0
 10
231.369
 20
98.0062
 30
0.0
 11
231.369
 21
111.857
 31
0.0
  0
LINE
  8
Group
 62
0
 10
250.419
 20
111.857
 30
0.0
 11
264.269
 21
111.857
 31
0.0
  0
LINE
  8
Group
 62
0
 10
264.269
 20
111.857
 30
0.0
 11
264.269
 21
98.0062
 31
0.0
  0
LINE
  8
Group
 62
0
 10
264.269
 20
98.0062
 30
0.0
 11
250.419
 21
98.0062
 31
0.0
  0
LINE
  8
Group
 62
0
 10
250.419
 20
98.0062
 30
0.0
 11
250.419
 21
111.857
 31
0.0
  0
CIRCLE
  8
Group
 62
0
 10
171.6191
 20
95.40625
 30
0.0
 40
1.4
  0
CIRCLE
  8
Group
 62
0
 10
247.8191
 20
95.40645
 30
0.0
 40
1.4
  0
CIRCLE
  8
Group
 62
0
 10
247.819025
 20
19.2063749998
 30
0.0
 40
1.4
  0
LINE
  8
Group
 62
0
 10
16.6192
 20
2.75746
 30
0.0
 11
2.76848
 21
2.75746
 31
0.0
  0
LINE
  8
Group
 62
0
 10
2.76848
 20
2.75746
 30
0.0
 11
2.76848
 21
16.6067
 31
0.0
  0
LINE
  8
Group
 62
0
 10
16.6192
 20
16.6067
 30
0.0
 11
16.6192
 21
2.75746
 31
0.0
  0
LINE
  8
Group
 62
0
 10
2.76848
 20
16.6067
 30
0.0
 11
16.6192
 21
16.6067
 31
0.0
  0
LINE
  8
Group
 62
0
 10
0.093707
 20
114.531
 30
0.0
 11
266.945
 21
114.531
 31
0.0
  0
LINE
  8
Group
 62
0
 10
35.669
 20
98.0062
 30
0.0
 11
21.8185
 21
98.0062
 31
0.0
  0
CIRCLE
  8
Group
 62
0
 10
171.619025
 20
19.2061749998
 30
0.0
 40
1.4
  0
LINE
  8
Group
 62
0
 10
174.219
 20
16.6067
 30
0.0
 11
188.069
 21
16.6067
 31
0.0
  0
LINE
  8
Group
 62
0
 10
92.819
 20
98.0062
 30
0.0
 11
78.9686
 21
98.0062
 31
0.0
  0
LINE
  8
Group
 62
0
 10
73.769
 20
98.0062
 30
0.0
 11
59.9186
 21
98.0062
 31
0.0
  0
LINE
  8
Group
 62
0
 10
111.868
 20
111.857
 30
0.0
 11
111.868
 21
98.0062
 31
0.0
  0
LINE
  8
Group
 62
0
 10
130.919
 20
21.8061
 30
0.0
 11
117.069
 21
21.8061
 31
0.0
  0
LINE
  8
Group
 62
0
 10
59.9186
 20
73.7567
 30
0.0
 11
73.769
 21
73.7567
 31
0.0
  0
LINE
  8
Group
 62
0
 10
169.019
 20
59.9063
 30
0.0
 11
155.169
 21
59.9063
 31
0.0
  0
CIRCLE
  8
Group
 62
0
 10
95.4946749998
 20
19.2822249998
 30
0.0
 40
1.4
  0
CIRCLE
  8
Group
 62
0
 10
95.49475
 20
95.4823
 30
0.0
 40
1.4
  0
CIRCLE
  8
Group
 62
0
 10
247.819025
 20
57.3064749988
 30
0.0
 40
1.4
  0
CIRCLE
  8
Group
 62
0
 10
171.619025
 20
57.3062749988
 30
0.0
 40
1.4
  0
CIRCLE
  8
Group
 62
0
 10
95.4946749998
 20
57.3823249988
 30
0.0
 40
1.4
  0
CIRCLE
  8
Group
 62
0
 10
19.21895
 20
95.40645
 30
0.0
 40
1.4
  0
CIRCLE
  8
Group
 62
0
 10
19.2188749998
 20
19.2063749998
 30
0.0
 40
1.4
  0
CIRCLE
  8
Group
 62
0
 10
19.1251679998
 20
138.126449
 30
0.0
 40
1.4
  0
LINE
  8
Group
 62
0
 10
35.669
 20
59.9063
 30
0.0
 11
21.8185
 21
59.9063
 31
0.0
  0
CIRCLE
  8
Group
 62
0
 10
19.2188749998
 20
57.3064749988
 30
0.0
 40
1.4
  0
LINE
  8
0
 62
0
 10
0.0
 20
119.0
 30
0.0
 11
0.0
 21
233.451074
 31
0.0
  0
ENDSEC
  0
EOF
